<?xml version="1.0" encoding="UTF-8"?>
<svg version="1.1" xmlns="http://www.w3.org/2000/svg" width="1024" height="1024">
<path d="M0 0 C13.34243064 0.66048244 26.15226554 2.99550635 39.0625 6.3125 C39.90886017 6.52598083 40.75522034 6.73946167 41.62722778 6.95941162 C65.72217353 13.07811229 89.99910857 21.29715418 112 33 C112.69689941 33.36625488 113.39379883 33.73250977 114.11181641 34.10986328 C130.08040415 42.56299517 145.6291566 52.032207 160 63 C161.00933594 63.75539062 162.01867187 64.51078125 163.05859375 65.2890625 C166.4105171 67.81177503 169.7166689 70.38874078 173 73 C173.78552246 73.62455078 173.78552246 73.62455078 174.58691406 74.26171875 C182.97988305 81.01766902 190.67790788 88.47194221 198.3125 96.0625 C199.231521 96.97225586 200.15054199 97.88201172 201.09741211 98.81933594 C207.1569952 104.90682824 212.66091541 111.27663567 218 118 C219.03680121 119.26617794 220.07557848 120.53074295 221.1171875 121.79296875 C232.24665621 135.43281436 241.79056502 149.90417667 250.80566406 165.01074219 C251.83050715 166.71769671 252.87791779 168.41106625 253.9296875 170.1015625 C277.31230848 208.35423738 299.26441905 267.77536604 289.03125 313.06640625 C282.98265445 337.17077959 268.46767657 358.93595202 247 372 C233.28519235 379.59313628 218.84588075 385.41873165 203 386 C202.05769531 386.03996094 201.11539063 386.07992188 200.14453125 386.12109375 C180.06996518 386.56257839 162.28064714 379.67309638 147.67578125 365.89453125 C135.87638979 353.13051801 130.55275348 338.32493029 129.57067871 321.20440674 C129.34284737 317.32636653 129.03621852 313.45458979 128.73046875 309.58203125 C128.64214279 308.44994232 128.64214279 308.44994232 128.55203247 307.29498291 C126.24518847 278.83227001 115.96549043 250.35107054 98 228 C97.42894531 227.24074219 96.85789062 226.48148438 96.26953125 225.69921875 C91.84071503 219.83129062 87.00976233 214.3761225 82 209 C81.32453125 208.25878906 80.6490625 207.51757812 79.953125 206.75390625 C73.38219182 199.82478311 65.82127611 194.41288928 58 189 C57.41557129 188.59217285 56.83114258 188.1843457 56.22900391 187.76416016 C44.89580164 179.92706141 32.64414214 174.37417254 20 169 C20.61698125 165.5037729 21.98928469 163.43111923 24.125 160.625 C33.24792433 147.89403387 38.77702443 132.98137252 43 118 C64.33484301 124.67889706 85.13909479 136.33708586 102 151 C102.92683594 151.74636719 103.85367188 152.49273437 104.80859375 153.26171875 C119.26804387 164.96139798 132.86475267 178.2942401 143.80566406 193.36572266 C144.99851908 194.99797358 146.22551488 196.59902906 147.4609375 198.19921875 C163.89607925 219.85356282 173.26949926 244.56079548 180.32373047 270.55566406 C182.98069792 281.65912151 182.98069792 281.65912151 189.875 290.3125 C195.19089533 293.08946025 201.1925517 292.73341486 207 292 C211.92417292 289.75388603 214.58611949 286.82776102 217 282 C219.71244931 272.98766841 216.55255133 263.70250755 214 255 C213.63503418 253.75307373 213.63503418 253.75307373 213.26269531 252.48095703 C203.67293257 220.739438 187.2913162 190.37636715 166 165 C165.05981896 163.8555319 164.11971638 162.71099933 163.1796875 161.56640625 C152.61047799 148.8410851 141.05823221 137.16763282 128 127 C127.22914063 126.36191406 126.45828125 125.72382813 125.6640625 125.06640625 C111.54996988 113.41407397 96.1829873 104.45652344 80 96 C79.23558594 95.59587891 78.47117187 95.19175781 77.68359375 94.77539062 C69.65218173 90.54104363 61.72587584 86.94782376 53.0859375 84.10546875 C52.06757812 83.74066406 51.04921875 83.37585938 50 83 C48.92105469 82.65324219 47.84210937 82.30648437 46.73046875 81.94921875 C43.67530431 79.76820723 43.50168402 79.27559161 42.71484375 75.7890625 C42.43426724 74.07107608 42.17632519 72.34928625 41.9375 70.625 C41.62395077 68.79547442 41.30232604 66.96731457 40.97265625 65.140625 C40.81297363 64.25310547 40.65329102 63.36558594 40.48876953 62.45117188 C36.60818381 42.99009262 23.58313355 24.35572369 8.85986328 11.57641602 C7.53974921 10.42147563 6.26532826 9.21471513 5 8 C5 7.34 5 6.68 5 6 C4.38125 5.731875 3.7625 5.46375 3.125 5.1875 C1 4 1 4 -1 1 C-0.67 0.67 -0.34 0.34 0 0 Z " fill="#FE9300" transform="translate(549,189)"/>
<path d="M0 0 C1.14210938 0.474375 2.28421875 0.94875 3.4609375 1.4375 C18.64495277 8.28842229 29.6460631 19.65114759 36.375 35 C38.9428885 42.17432006 39.85007182 49.46096604 40.3515625 57.03515625 C43.49060356 103.34410218 64.45546382 144.12306049 99 175 C115.10991067 188.7076311 133.38854171 198.3354995 153 206 C152.22850155 209.48768306 151.04909434 211.51845452 148.875 214.375 C141.79975824 224.29193722 137.40681712 234.80319592 134.04296875 246.40625 C133.10579575 249.63546033 132.08521346 252.81801665 131 256 C122.23550039 255.17510592 115.28237596 251.26947077 107.78369141 247.00634766 C105.29715546 245.60345946 102.77169267 244.27590913 100.25 242.9375 C94.66452123 239.87662463 89.33032442 236.48178573 84 233 C83.05382812 232.40574219 82.10765625 231.81148437 81.1328125 231.19921875 C72.75996744 225.8357119 65.38970334 219.61357807 58 213 C57.15405273 212.24879883 57.15405273 212.24879883 56.29101562 211.48242188 C23.66345486 182.41698737 1.28894619 145.01138175 -11.1171875 103.23828125 C-12.98082779 96.97737399 -14.2173421 93.33614879 -20 90 C-25.26406391 87.67428211 -30.09782817 87.72851677 -35.66015625 89.03125 C-39.56630924 90.64848863 -41.84740771 93.4335279 -44 97 C-50.37014983 116.11044949 -34.55648911 143.78284874 -26.44921875 160.32421875 C-24.09484569 164.95724352 -21.59303796 169.49677059 -19 174 C-18.5565625 174.77166504 -18.113125 175.54333008 -17.65625 176.33837891 C-11.77019194 186.47803361 -5.3956432 195.90228009 2 205 C2.78503906 205.98871094 3.57007813 206.97742188 4.37890625 207.99609375 C8.27076015 212.84938702 12.22066395 217.42687428 16.78515625 221.66015625 C18 223 18 223 18 225 C18.66 225 19.32 225 20 225 C20 225.66 20 226.32 20 227 C20.54785156 227.2165625 21.09570312 227.433125 21.66015625 227.65625 C24.77498125 229.44506436 26.99349271 231.9157826 29.4375 234.5 C35.48949375 240.71258353 41.9953451 245.91159829 49 251 C49.57008789 251.42023438 50.14017578 251.84046875 50.72753906 252.2734375 C73.15659694 268.80406642 99.14649512 284.32534405 126.28515625 291.52734375 C128 292 128 292 130 293 C130.57495117 294.87915039 130.57495117 294.87915039 131.04296875 297.34765625 C131.22569336 298.25499512 131.40841797 299.16233398 131.59667969 300.09716797 C131.88913574 301.56500732 131.88913574 301.56500732 132.1875 303.0625 C134.33445217 313.07246271 137.31414832 321.91626687 142 331 C142.34579102 331.67788574 142.69158203 332.35577148 143.04785156 333.05419922 C149.18961415 344.93140617 156.03278522 355.50472766 166.984375 363.5078125 C170.61182108 366.19324739 173.5419789 368.62593671 175 373 C165.88596454 372.59274726 157.3062489 371.49999259 148.39794922 369.51855469 C145.62692928 368.91932374 142.84747203 368.37100993 140.06640625 367.8203125 C116.15542431 362.95473678 93.20861841 355.08336267 71 345 C70.20416504 344.6405127 69.40833008 344.28102539 68.58837891 343.91064453 C38.55554616 330.25397073 7.7510839 311.57202436 -15.34375 287.66015625 C-17.05511835 285.94475165 -18.84189408 284.38202143 -20.6875 282.8125 C-29.09550289 275.54955587 -36.84384186 267.48931822 -44 259 C-44.81855469 258.05898438 -45.63710938 257.11796875 -46.48046875 256.1484375 C-53.45046897 248.09710081 -59.87529822 239.7109676 -66 231 C-66.39719238 230.43780762 -66.79438477 229.87561523 -67.20361328 229.29638672 C-70 225.24352786 -70 225.24352786 -70 223 C-70.66 223 -71.32 223 -72 223 C-73.2175293 221.38623047 -73.2175293 221.38623047 -74.57421875 219.1171875 C-75.07348877 218.28662842 -75.57275879 217.45606934 -76.0871582 216.6003418 C-76.615271 215.700979 -77.14338379 214.80161621 -77.6875 213.875 C-78.49997192 212.50371948 -78.49997192 212.50371948 -79.32885742 211.10473633 C-83.56746225 203.88357396 -87.42938404 196.57645626 -91 189 C-91.55945313 187.84886719 -92.11890625 186.69773437 -92.6953125 185.51171875 C-111.38566947 146.75880138 -128.05664895 100.08261142 -113.83203125 57.50390625 C-103.33489571 30.836426 -83.00729121 12.20296078 -57.19824219 0.90820312 C-52.9010676 -0.86717332 -48.56365562 -2.14095894 -44 -3 C-43.16210938 -3.17917969 -42.32421875 -3.35835938 -41.4609375 -3.54296875 C-27.83977103 -5.34170067 -12.6835708 -5.74350376 0 0 Z " fill="#FE9400" transform="translate(302,469)"/>
<path d="M0 0 C1.68996094 0.47566406 1.68996094 0.47566406 3.4140625 0.9609375 C28.6109918 8.98072764 47.90775868 27.95342524 60.0546875 50.96484375 C68.70931803 68.28669641 71.26813635 90.16307552 66.03515625 108.953125 C60.04420461 126.58686944 50.0339265 141.17503094 33.01171875 149.79296875 C24.88671946 153.04929142 16.08999765 153.86285371 7.47290039 155.01611328 C-36.8406404 160.99398838 -78.02116734 181.51462362 -105.76733398 217.36132812 C-107.19014065 219.23228045 -108.59835298 221.11314893 -110 223 C-110.70890381 223.95036133 -110.70890381 223.95036133 -111.43212891 224.91992188 C-117.46963295 233.10175949 -122.47283148 241.25901804 -126.36401367 250.6809082 C-128.55975871 255.82173503 -128.55975871 255.82173503 -130.95288086 256.79077148 C-134.13981484 257.11649628 -135.6287685 255.51021364 -138.125 253.625 C-141.43206252 251.10022851 -141.43206252 251.10022851 -145 249 C-145 248.34 -145 247.68 -145 247 C-145.64839844 246.74992188 -146.29679688 246.49984375 -146.96484375 246.2421875 C-149.33929076 245.2704061 -151.66977666 244.25721919 -154.00390625 243.1953125 C-161.87893168 239.61536338 -169.59654184 236.22954739 -177.91015625 233.7890625 C-180 233 -180 233 -181 231 C-161.53094751 179.98336104 -114.70318317 138.48911389 -66.06640625 116.2265625 C-57.37825948 112.35165233 -48.56587569 108.92299684 -39.375 106.4375 C-33.70003664 104.79700639 -30.49526044 102.19304865 -27.125 97.25 C-25.21063364 91.71960828 -25.13566085 87.02931801 -27.4375 81.625 C-27.953125 80.75875 -28.46875 79.8925 -29 79 C-29.33 78.01 -29.66 77.02 -30 76 C-31.91666667 74.83333333 -31.91666667 74.83333333 -34 74 C-34.66 73.67 -35.32 73.34 -36 73 C-46.80200443 71.4761458 -56.08740627 75.30133919 -66 79 C-67.14855469 79.40605469 -68.29710937 79.81210937 -69.48046875 80.23046875 C-78.33967902 83.45500118 -86.65540831 87.6468896 -95 92 C-95.93328125 92.48210937 -96.8665625 92.96421875 -97.828125 93.4609375 C-116.78619523 103.52150851 -134.28483571 115.36277117 -150 130 C-151.37075183 131.19240122 -152.74557863 132.38013883 -154.125 133.5625 C-161.45424045 139.55244751 -161.45424045 139.55244751 -167 147 C-167.66 147 -168.32 147 -169 147 C-169.25007812 147.57363281 -169.50015625 148.14726562 -169.7578125 148.73828125 C-171.17346364 151.31583474 -172.83122279 153.07260234 -174.875 155.1875 C-180.80652024 161.63730842 -185.66314527 168.79749126 -190.61767578 176.0078125 C-191.95364562 177.93319468 -193.31980228 179.83321328 -194.6953125 181.73046875 C-197.51071362 185.66187971 -199.73995649 189.81465919 -201.98828125 194.09130859 C-203.20586753 196.38838619 -204.4476863 198.67187601 -205.6875 200.95703125 C-212.49579723 213.5159879 -212.49579723 213.5159879 -217.31640625 226.91796875 C-218 229 -218 229 -220 231 C-222.92150787 231.51155958 -225.81124697 231.93455907 -228.75 232.3125 C-252.93417743 235.82636276 -273.75674978 247.90134726 -291 265 C-291.33 265.66 -291.66 266.32 -292 267 C-292.66 267 -293.32 267 -294 267 C-294.28875 267.598125 -294.5775 268.19625 -294.875 268.8125 C-296 271 -296 271 -298 274 C-298.99 274 -299.98 274 -301 274 C-299.80085248 261.34630906 -297.23680847 249.27784154 -294 237 C-293.62681641 235.5759082 -293.62681641 235.5759082 -293.24609375 234.12304688 C-281.62498338 190.47088606 -260.61206327 151.51692828 -233 116 C-232.25363281 115.03835938 -231.50726563 114.07671875 -230.73828125 113.0859375 C-217.60550058 96.62748039 -202.5293377 81.03927226 -186 68 C-184.24870746 66.54321912 -182.49873085 65.08485496 -180.75 63.625 C-143.1096805 32.9590537 -98.98121281 12.59737747 -52 1 C-51.03239746 0.75991211 -50.06479492 0.51982422 -49.06787109 0.27246094 C-32.41128669 -3.75150599 -16.65324943 -4.77470788 0 0 Z " fill="#FE9200" transform="translate(484,194)"/>
<path d="M0 0 C0.66 0 1.32 0 2 0 C-2.5249733 60.30219526 -36.68773971 119.38006708 -77 163 C-77.89819753 164.00034944 -78.79526947 165.00171031 -79.69140625 166.00390625 C-85.26701548 172.19819058 -91.05367404 178.10122626 -97.125 183.8125 C-97.77678223 184.42963867 -98.42856445 185.04677734 -99.10009766 185.68261719 C-99.70901855 186.24754883 -100.31793945 186.81248047 -100.9453125 187.39453125 C-101.75766357 188.15020386 -101.75766357 188.15020386 -102.58642578 188.92114258 C-104 190 -104 190 -106 190 C-106 190.66 -106 191.32 -106 192 C-107.51171875 193.375 -107.51171875 193.375 -109.6875 195 C-110.51378906 195.62261719 -111.34007812 196.24523437 -112.19140625 196.88671875 C-113.11824219 197.58410156 -114.04507813 198.28148437 -115 199 C-116.50680502 200.18519446 -118.01359012 201.37041452 -119.51977539 202.55639648 C-126.44236032 207.973385 -133.62551858 212.90154944 -140.99365234 217.68945312 C-143.08460205 219.05526208 -145.16184639 220.44036412 -147.23828125 221.828125 C-155.90348326 227.58237603 -164.55687308 232.60168611 -174 237 C-175.29583059 237.61273662 -176.59139635 238.22603356 -177.88671875 238.83984375 C-181.5805099 240.58343411 -185.28870496 242.29400148 -189 244 C-190.21429687 244.57041016 -190.21429687 244.57041016 -191.453125 245.15234375 C-197.00029765 247.71020669 -202.7080975 249.73994242 -208.47265625 251.75390625 C-210.90125743 252.61185063 -213.31630668 253.50882443 -215.71875 254.4375 C-223.98022267 257.54906679 -232.56416205 259.78558779 -241.05615234 262.171875 C-242.85530968 262.67799058 -244.65293609 263.18964192 -246.44775391 263.7109375 C-270.25307121 270.56839276 -294.45212962 267.54316423 -316.1875 255.8125 C-317.80056113 254.89038789 -319.40534432 253.95358807 -321 253 C-321.92425781 252.48824219 -322.84851563 251.97648438 -323.80078125 251.44921875 C-324.52652344 250.97097656 -325.25226563 250.49273438 -326 250 C-326 249.34 -326 248.68 -326 248 C-326.69738281 247.78601563 -327.39476562 247.57203125 -328.11328125 247.3515625 C-331.77851073 245.63550107 -334.36684467 243.2074643 -337.1875 240.375 C-338.03634766 239.52470215 -338.03634766 239.52470215 -338.90234375 238.65722656 C-344.66540532 232.65728239 -348.9085189 225.92757697 -353.00878906 218.72558594 C-353.83387961 217.28919677 -354.70448491 215.87907081 -355.5859375 214.4765625 C-365.12909543 198.91832321 -366.95122947 175.0055199 -362.8125 157.375 C-362.25280489 155.56894679 -361.64868391 153.77603378 -361 152 C-360.6596875 151.01128906 -360.319375 150.02257812 -359.96875 149.00390625 C-354.08272957 133.39402099 -342.92312922 122.27905152 -328 115 C-321.07320476 112.10785672 -314.30231536 111.3443412 -306.875 110.6875 C-264.4484031 106.30945873 -224.22344493 85.82765644 -196.6875 52.9375 C-188.37346909 42.57672124 -181.15717162 31.97527077 -174.8125 20.30078125 C-173 17 -173 17 -171 14 C-167.21667159 15.31622789 -164.72960805 16.9097914 -161.75 19.5625 C-151.63260574 27.82129146 -139.73642164 33.28089696 -127.26928711 36.97314453 C-125.21875 37.61328125 -125.21875 37.61328125 -122 39 C-120.89377055 41.43541477 -120.8661014 42.60224506 -121.72167969 45.14379883 C-122.31577637 46.28884888 -122.31577637 46.28884888 -122.921875 47.45703125 C-123.36490967 48.31514404 -123.80794434 49.17325684 -124.2644043 50.05737305 C-124.75465088 50.96656494 -125.24489746 51.87575684 -125.75 52.8125 C-126.24862549 53.74940674 -126.74725098 54.68631348 -127.26098633 55.65161133 C-131.49358216 63.42388234 -136.29514719 70.53346225 -141.78466797 77.46289062 C-142.85692844 78.8190481 -143.90142267 80.19706028 -144.94140625 81.578125 C-160.59551999 101.99947424 -180.23414963 119.4816003 -202.16943359 132.87304688 C-204.0202246 134.01245088 -205.84742542 135.18438114 -207.67578125 136.359375 C-216.50316751 141.90874875 -225.73780598 146.27975385 -235.3125 150.375 C-237.06457764 151.12487183 -237.06457764 151.12487183 -238.85205078 151.88989258 C-245.32107767 154.60234099 -251.79752643 157.01845449 -258.50219727 159.0847168 C-262.92584872 160.70569904 -266.02244372 162.98379017 -268.125 167.3203125 C-270.01312638 173.10269955 -269.99308426 178.97705058 -267.3125 184.4375 C-262.73218201 189.51298751 -259.9157969 191.4547712 -253 192 C-215.71045139 185.79221062 -175.97966392 161.50619829 -149 136 C-147.73356089 134.91153298 -146.46279159 133.82808155 -145.1875 132.75 C-135.57583203 124.34465473 -126.75178943 115.14576759 -119 105 C-118.48324707 104.33258789 -117.96649414 103.66517578 -117.43408203 102.97753906 C-105.74877646 87.82164773 -96.15594564 71.88973328 -87.75390625 54.7109375 C-87.31498047 53.8293396 -87.31498047 53.8293396 -86.8671875 52.92993164 C-85.93749285 50.9508382 -85.93749285 50.9508382 -85.2109375 48.59936523 C-84.343312 46.13217789 -83.52648506 44.12692682 -82 42 C-79.02810562 40.59553469 -76.12728667 40.48440262 -72.875 40.3125 C-71.06246223 40.1258644 -69.2512092 39.92636035 -67.44140625 39.71484375 C-66.52891113 39.60897949 -65.61641602 39.50311523 -64.67626953 39.39404297 C-47.37706279 36.84697859 -30.7829418 27.55010373 -17.3203125 16.75 C-15 15 -15 15 -12 14 C-12 13.34 -12 12.68 -12 12 C-11.34 12 -10.68 12 -10 12 C-10 11.34 -10 10.68 -10 10 C-8.54434328 8.77592503 -7.0843712 7.55624699 -5.59375 6.375 C-3.76463911 4.88181237 -3.76463911 4.88181237 -1.75 2.1875 C-1.1725 1.465625 -0.595 0.74375 0 0 Z " fill="#FE9500" transform="translate(837,573)"/>
</svg>
